<?xml version="1.0" encoding="utf-8"?>
<!-- Generator: Adobe Illustrator 19.2.1, SVG Export Plug-In . SVG Version: 6.00 Build 0)  -->
<svg version="1.1" id="svg1953" xmlns:svg="http://www.w3.org/2000/svg"
	 xmlns="http://www.w3.org/2000/svg" xmlns:xlink="http://www.w3.org/1999/xlink" x="0px" y="0px" viewBox="0 0 150 150"
	 style="enable-background:new 0 0 150 150;" xml:space="preserve">
<path id="path1962" d="M115.8,150c-0.3-0.3-7.8-14.9-17-32.5s-16.7-32.2-17-32.2c-0.3-0.3-5.1,4.5-13.4,12.8
	c-12.2,12.2-13.1,13.1-13.1,14.3c0,0.6,0.6,5.4,1.2,10.4l1.2,9.2l-5.4,5.4l-5.4,5.4l-6.3-11.9l-6.3-11.9l-11.6-6
	c-6.3-3.3-11.6-6.3-11.6-6.3s2.4-2.4,5.4-5.4l5.4-5.1l10.1,1.2l10.1,1.2l13.4-13.4C66,74.8,68.6,71.8,68.3,71.5
	c-0.3-0.3-15.2-8.1-32.8-17.3L3,37.2l6.6-6.6l6.6-6.6l40,10.7l40,10.7l18.2-18.2C127.1,14.5,133.1,8.8,134,8.2
	c1.8-1.2,3-1.5,4.5-1.5c3-0.3,5.1,0.6,7.2,2.7c1.8,2.1,2.4,3.6,2.4,6c0,3.9,0.3,3.6-20.3,24.5l-18.5,18.5l8.1,31
	c4.5,17,9,34.6,10.1,39.4l2.1,8.4l-6.6,6.6C117.9,148.8,116.1,150.3,115.8,150z"/>
</svg>
