<?xml version="1.0" encoding="utf-8"?>
<!-- Generator: Adobe Illustrator 15.1.0, SVG Export Plug-In . SVG Version: 6.00 Build 0)  -->
<!DOCTYPE svg PUBLIC "-//W3C//DTD SVG 1.1//EN" "http://www.w3.org/Graphics/SVG/1.1/DTD/svg11.dtd">
<svg version="1.1" id="Layer_1" xmlns="http://www.w3.org/2000/svg" xmlns:xlink="http://www.w3.org/1999/xlink" x="0px" y="0px"
	 width="150px" height="150px" viewBox="0 0 150 150" enable-background="new 0 0 150 150" xml:space="preserve">
<path d="M96.607,34.978c5.907,0,10.737-4.802,10.737-10.739c0-5.936-4.83-10.739-10.737-10.739c-5.937,0-10.738,4.803-10.738,10.739
	C85.869,30.176,90.67,34.978,96.607,34.978z M114.503,77.932c-16.464,0-29.828,13.364-29.828,29.828
	c0,16.465,13.364,29.829,29.828,29.829c16.465,0,29.831-13.364,29.831-29.829C144.334,91.295,130.969,77.932,114.503,77.932z
	 M114.503,128.64c-11.544,0-20.88-9.335-20.88-20.88c0-11.544,9.336-20.88,20.88-20.88c11.544,0,20.879,9.336,20.879,20.88
	C135.383,119.305,126.048,128.64,114.503,128.64z M89.446,66h25.057V55.261H95.413L83.871,35.783
	c-1.759-2.983-5.014-4.981-8.741-4.981c-2.804,0-5.34,1.133-7.159,2.983L45.898,55.828c-1.851,1.849-2.983,4.385-2.983,7.189
	c0,3.757,1.999,6.919,5.071,8.769l19.985,12.11v29.83h10.739V75.069l-13.423-9.963l13.843-13.902L89.446,66z M30.983,77.932
	c-16.466,0-29.829,13.364-29.829,29.828c0,16.465,13.363,29.829,29.829,29.829s29.828-13.364,29.828-29.829
	C60.811,91.295,47.449,77.932,30.983,77.932z M30.983,128.64c-11.544,0-20.88-9.335-20.88-20.88c0-11.544,9.336-20.88,20.88-20.88
	s20.88,9.336,20.88,20.88C51.863,119.305,42.527,128.64,30.983,128.64z"/>
</svg>
