<?xml version="1.0" encoding="utf-8"?>
<!-- Generator: Adobe Illustrator 19.2.1, SVG Export Plug-In . SVG Version: 6.00 Build 0)  -->
<svg version="1.1" id="Layer_1" xmlns="http://www.w3.org/2000/svg" xmlns:xlink="http://www.w3.org/1999/xlink" x="0px" y="0px"
	 viewBox="0 0 150 150" style="enable-background:new 0 0 150 150;" xml:space="preserve">
<path d="M99.4,92.9h0.2v-0.3c0-13.3-10.7-24.2-24.1-24.3h-0.3C61.9,68.3,51,79.2,51,92.6c0,0.1,0,0.2,0,0.3l0,17.1H2.2V70.8l1.2-0.2
	c12.4,0,24.2-5.2,32.5-14.4l0,0.2C46,45.4,60.3,39.1,75.3,39.1c15,0,29.3,6.3,39.5,17.4l0.3-0.2c8.3,9.1,20.1,14.4,32.5,14.4
	l1.2,0.2V110H99.9L99.4,92.9z"/>
</svg>
