<?xml version="1.0" encoding="utf-8"?>
<!-- Generator: Adobe Illustrator 21.0.2, SVG Export Plug-In . SVG Version: 6.00 Build 0)  -->
<svg version="1.1" id="Layer_1" xmlns="http://www.w3.org/2000/svg" xmlns:xlink="http://www.w3.org/1999/xlink" x="0px" y="0px"
	 viewBox="0 0 150 150" style="enable-background:new 0 0 150 150;" xml:space="preserve">
<path d="M45.6,93.4V82.7c-0.1-1.4-1.1-3.1-3.4-3.8L39,70.7c-0.9-2-2.4-2.5-4-2.5H18.7c-1.7-0.1-3.1,0.5-4,2.5l-3.2,8.1
	C9.1,79.6,8,81.3,8,82.7v10.7h3.1V97c-0.2,3.4,5.4,3.6,5.5,0l0.1-3.5h20.1l0.1,3.5c0.1,3.6,5.7,3.5,5.5,0v-3.6H45.6z M14,87.2
	c-1.5,0-2.6-1.2-2.6-2.7s1.2-2.6,2.6-2.6s2.6,1.2,2.6,2.6C16.6,86,15.4,87.2,14,87.2z M14.7,78.8l2.3-6.2c0.4-1.2,1.1-1.5,2.1-1.5
	c0.2,0,0.3,0,0.5,0l14.6,0.1c1.3,0,1.9,0,2.5,1.3l2.3,6.3C39,78.8,14.7,78.8,14.7,78.8z M39.7,87.2c-1.5,0-2.6-1.2-2.6-2.7
	s1.2-2.6,2.6-2.6c1.5,0,2.6,1.2,2.6,2.6C42.4,86,41.2,87.2,39.7,87.2z"/>
<path d="M41.4,61.4v-8.7c0-1.1-0.9-2.6-2.8-3.1L36,42.9c-0.7-1.6-1.9-2.1-3.3-2H19.4c-1.4,0-2.6,0.4-3.3,2l-2.6,6.7
	c-1.9,0.5-2.8,1.9-2.8,3.1v8.7h2.5v2.9c-0.1,2.8,4.4,2.9,4.5,0l0.1-2.9h16.5l0.1,2.9c0.1,2.9,4.7,2.8,4.5,0v-2.9H41.4z M15.6,56.3
	c-1.2,0-2.1-1-2.1-2.2s1-2.1,2.1-2.1s2.1,1,2.1,2.1C17.7,55.4,16.7,56.3,15.6,56.3z M16.1,49.4l1.9-5c0.3-1,0.9-1.2,1.7-1.2
	c0.1,0,0.2,0,0.4,0H32c1.1,0,1.6,0,2,1l1.9,5.2H16.1z M36.6,56.3c-1.2,0-2.1-1-2.1-2.2s1-2.1,2.1-2.1c1.2,0,2.1,1,2.1,2.1
	C38.8,55.4,37.8,56.3,36.6,56.3z"/>
<path d="M37.4,34.2V28c0-0.8-0.6-1.8-2-2.2L33.5,21c-0.5-1.2-1.4-1.5-2.4-1.4h-9.5c-1,0-1.8,0.3-2.4,1.4l-1.9,4.8
	c-1.4,0.4-2,1.4-2,2.2v6.2h1.8v2.1c-0.1,2,3.2,2.1,3.2,0v-2.1h11.8v2.1c0.1,2.1,3.3,2,3.2,0v-2.1H37.4z M18.9,30.6
	c-0.8,0-1.5-0.7-1.5-1.6c0-0.8,0.7-1.5,1.5-1.5s1.5,0.7,1.5,1.5C20.4,29.9,19.8,30.6,18.9,30.6z M19.3,25.7l1.3-3.6
	c0.2-0.7,0.6-0.8,1.2-0.9c0.1,0,0.2,0,0.3,0h8.5c0.8,0,1.1,0,1.4,0.7l1.4,3.7L19.3,25.7L19.3,25.7z M34,30.6c-0.8,0-1.5-0.7-1.5-1.6
	c0-0.8,0.7-1.5,1.5-1.5s1.5,0.7,1.5,1.5C35.5,29.9,34.8,30.6,34,30.6z"/>
<path d="M48.3,132.2v-12.9c-0.1-1.7-1.3-3.8-4.1-4.6l-3.9-9.9c-1.1-2.4-2.8-3.1-4.9-3H15.9c-2-0.1-3.8,0.6-4.9,3l-3.9,9.8
	c-2.8,0.8-4.1,2.9-4.1,4.6v12.9h3.8v4.4c-0.2,4.1,6.5,4.3,6.7,0l0.1-4.3h24.3l0.1,4.3c0.2,4.3,6.9,4.2,6.7,0v-4.4h3.6V132.2z
	 M10.2,124.7c-1.8,0-3.2-1.4-3.2-3.2c0-1.8,1.4-3.2,3.2-3.2s3.2,1.4,3.2,3.2C13.3,123.3,11.9,124.7,10.2,124.7z M11,114.5l2.8-7.4
	c0.4-1.5,1.3-1.8,2.5-1.8c0.2,0,0.4,0,0.5,0l17.6,0.1c1.6,0,2.3,0,3,1.5l2.8,7.6C40.2,114.5,11,114.5,11,114.5z M41.3,124.7
	c-1.8,0-3.2-1.4-3.2-3.2c0-1.8,1.4-3.2,3.2-3.2s3.2,1.4,3.2,3.2C44.5,123.3,43.1,124.7,41.3,124.7z"/>
<path d="M94.9,93.5V82.8c-0.1-1.4-1.1-3.1-3.4-3.8l-3.2-8.2c-0.9-2-2.4-2.5-4-2.5H68c-1.7-0.1-3.1,0.5-4,2.5L60.8,79
	c-2.4,0.7-3.4,2.4-3.4,3.8v10.7h3.1v3.6c-0.2,3.4,5.4,3.6,5.5,0l0.1-3.5h20.1l0.1,3.5c0.1,3.6,5.7,3.5,5.5,0v-3.6H94.9z M63.3,87.3
	c-1.5,0-2.6-1.2-2.6-2.7s1.2-2.6,2.6-2.6s2.6,1.2,2.6,2.6C65.9,86.1,64.8,87.3,63.3,87.3z M64,78.8l2.3-6.2c0.4-1.2,1.1-1.5,2.1-1.5
	c0.2,0,0.3,0,0.5,0l14.6,0.1c1.3,0,1.9,0,2.5,1.3l2.3,6.3C88.3,78.8,64,78.8,64,78.8z M89.1,87.3c-1.5,0-2.6-1.2-2.6-2.7
	s1.2-2.6,2.6-2.6c1.5,0,2.6,1.2,2.6,2.6C91.7,86.1,90.5,87.3,89.1,87.3z"/>
<path d="M90.7,61.5v-8.7c0-1.1-0.9-2.6-2.8-3.1L85.3,43c-0.7-1.6-1.9-2.1-3.3-2H68.8c-1.4,0-2.6,0.4-3.3,2l-2.6,6.7
	c-1.9,0.5-2.8,1.9-2.8,3.1v8.7h2.5v2.9c-0.1,2.8,4.4,2.9,4.5,0l0.1-2.9h16.5l0.1,2.9c0.1,2.9,4.7,2.8,4.5,0v-2.9H90.7z M64.9,56.4
	c-1.2,0-2.1-1-2.1-2.2s1-2.1,2.1-2.1c1.2,0,2.1,1,2.1,2.1C67,55.5,66.1,56.4,64.9,56.4z M65.5,49.5l1.9-5c0.3-1,0.9-1.2,1.7-1.2
	c0.1,0,0.2,0,0.4,0h11.9c1.1,0,1.6,0,2,1l1.9,5.2H65.5z M86,56.4c-1.2,0-2.1-1-2.1-2.2s1-2.1,2.1-2.1s2.1,1,2.1,2.1
	C88.1,55.5,87.1,56.4,86,56.4z"/>
<path d="M86.7,34.3v-6.2c0-0.8-0.6-1.8-2-2.2l-1.9-4.8c-0.5-1.2-1.4-1.5-2.4-1.4H71c-1,0-1.8,0.3-2.4,1.4l-1.9,4.8
	c-1.4,0.4-2,1.4-2,2.2v6.2h1.8v2.1c-0.1,2,3.2,2.1,3.2,0v-2.1h11.8v2.1c0.1,2.1,3.3,2,3.2,0v-2.1H86.7z M68.3,30.7
	c-0.8,0-1.5-0.7-1.5-1.6c0-0.8,0.7-1.5,1.5-1.5s1.5,0.7,1.5,1.5C69.8,30,69.1,30.7,68.3,30.7z M68.7,25.8l1.3-3.6
	c0.2-0.7,0.6-0.8,1.2-0.9c0.1,0,0.2,0,0.3,0H80c0.8,0,1.1,0,1.4,0.7l1.4,3.7L68.7,25.8L68.7,25.8z M83.3,30.7
	c-0.8,0-1.5-0.7-1.5-1.6c0-0.8,0.7-1.5,1.5-1.5s1.5,0.7,1.5,1.5C84.9,30,84.2,30.7,83.3,30.7z"/>
<path d="M97.7,132.3v-12.9c-0.1-1.7-1.3-3.8-4.1-4.6l-3.9-9.9c-1.1-2.4-2.8-3.1-4.9-3H65.2c-2-0.1-3.8,0.6-4.9,3l-3.9,9.8
	c-2.8,0.8-4.1,2.9-4.1,4.6v12.9h3.8v4.4c-0.2,4.1,6.5,4.3,6.7,0l0.1-4.3h24.3l0.1,4.3c0.2,4.3,6.9,4.2,6.7,0v-4.4h3.7V132.3z
	 M59.5,124.8c-1.8,0-3.2-1.4-3.2-3.2c0-1.8,1.4-3.2,3.2-3.2s3.2,1.4,3.2,3.2S61.3,124.8,59.5,124.8z M60.4,114.6l2.8-7.4
	c0.4-1.5,1.3-1.8,2.5-1.8c0.2,0,0.4,0,0.5,0l17.6,0.1c1.6,0,2.3,0,3,1.5l2.8,7.6C89.6,114.6,60.4,114.6,60.4,114.6z M90.6,124.8
	c-1.8,0-3.2-1.4-3.2-3.2c0-1.8,1.4-3.2,3.2-3.2c1.8,0,3.2,1.4,3.2,3.2C93.8,123.4,92.4,124.8,90.6,124.8z"/>
<path d="M146.2,92.5V81.8c-0.1-1.4-1.1-3.1-3.4-3.8l-3.2-8.2c-0.9-2-2.4-2.5-4-2.5h-16.2c-1.7-0.1-3.1,0.5-4,2.5l-3.2,8.1
	c-2.4,0.7-3.4,2.4-3.4,3.8v10.7h3.1V96c-0.2,3.4,5.4,3.6,5.5,0l0.1-3.5h20.1l0.1,3.5c0.1,3.6,5.7,3.5,5.5,0v-3.6L146.2,92.5
	L146.2,92.5z M114.6,86.3c-1.5,0-2.6-1.2-2.6-2.7s1.2-2.6,2.6-2.6s2.6,1.2,2.6,2.6C117.2,85.2,116.1,86.3,114.6,86.3z M115.3,77.9
	l2.3-6.2c0.4-1.2,1.1-1.5,2.1-1.5c0.2,0,0.3,0,0.5,0l14.6,0.1c1.3,0,1.9,0,2.5,1.3l2.3,6.3C139.6,77.9,115.3,77.9,115.3,77.9z
	 M140.4,86.3c-1.5,0-2.6-1.2-2.6-2.7s1.2-2.6,2.6-2.6c1.5,0,2.6,1.2,2.6,2.6C143,85.2,141.8,86.3,140.4,86.3z"/>
<path d="M142,60.5v-8.7c0-1.1-0.9-2.6-2.8-3.1l-2.6-6.7c-0.7-1.6-1.9-2.1-3.3-2h-13.2c-1.4,0-2.6,0.4-3.3,2l-2.6,6.7
	c-1.9,0.5-2.8,1.9-2.8,3.1v8.7h2.5v2.9c-0.1,2.8,4.4,2.9,4.5,0l0.1-2.9H135l0.1,2.9c0.1,2.9,4.7,2.8,4.5,0v-2.9H142z M116.2,55.4
	c-1.2,0-2.1-1-2.1-2.2s1-2.1,2.1-2.1s2.1,1,2.1,2.1C118.4,54.5,117.4,55.4,116.2,55.4z M116.8,48.5l1.9-5c0.3-1,0.9-1.2,1.7-1.2
	c0.1,0,0.2,0,0.4,0h11.9c1.1,0,1.6,0,2,1l1.9,5.2H116.8z M137.3,55.4c-1.2,0-2.1-1-2.1-2.2s1-2.1,2.1-2.1c1.2,0,2.1,1,2.1,2.1
	C139.4,54.5,138.5,55.4,137.3,55.4z"/>
<path d="M138,33.3v-6.2c0-0.8-0.6-1.8-2-2.2l-1.9-4.8c-0.5-1.2-1.4-1.5-2.4-1.4h-9.5c-1,0-1.8,0.3-2.4,1.4l-1.9,4.8
	c-1.4,0.4-2,1.4-2,2.2v6.2h1.8v2.1c-0.1,2,3.2,2.1,3.2,0v-2.1h11.8v2.1c0.1,2.1,3.3,2,3.2,0v-2.1H138z M119.6,29.7
	c-0.8,0-1.5-0.7-1.5-1.6c0-0.8,0.7-1.5,1.5-1.5s1.5,0.7,1.5,1.5C121.1,29.1,120.4,29.7,119.6,29.7z M120,24.8l1.3-3.6
	c0.2-0.7,0.6-0.8,1.2-0.9c0.1,0,0.2,0,0.3,0h8.5c0.8,0,1.1,0,1.4,0.7l1.4,3.7L120,24.8L120,24.8z M134.6,29.7
	c-0.8,0-1.5-0.7-1.5-1.6c0-0.8,0.7-1.5,1.5-1.5s1.5,0.7,1.5,1.5C136.2,29.1,135.5,29.7,134.6,29.7z"/>
<path d="M149,131.3v-12.9c-0.1-1.7-1.3-3.8-4.1-4.6L141,104c-1.1-2.4-2.8-3.1-4.9-3h-19.5c-2-0.1-3.8,0.6-4.9,3l-3.9,9.8
	c-2.8,0.8-4.1,2.9-4.1,4.6v12.9h3.8v4.4c-0.2,4.1,6.5,4.3,6.7,0l0.1-4.3h24.3l0.1,4.3c0.2,4.3,6.9,4.2,6.7,0v-4.4H149z M110.9,123.8
	c-1.8,0-3.2-1.4-3.2-3.2c0-1.8,1.4-3.2,3.2-3.2s3.2,1.4,3.2,3.2C114,122.4,112.6,123.8,110.9,123.8z M111.7,113.6l2.8-7.4
	c0.4-1.5,1.3-1.8,2.5-1.8c0.2,0,0.4,0,0.5,0l17.6,0.1c1.6,0,2.3,0,3,1.5l2.8,7.6C140.9,113.6,111.7,113.6,111.7,113.6z M142,123.8
	c-1.8,0-3.2-1.4-3.2-3.2c0-1.8,1.4-3.2,3.2-3.2s3.2,1.4,3.2,3.2C145.1,122.4,143.7,123.8,142,123.8z"/>
<path d="M34.4,12.7V8c0-0.6-0.5-1.4-1.5-1.7l-1.4-3.6c-0.4-0.9-1-1.1-1.8-1.1h-7.1c-0.7,0-1.4,0.2-1.8,1.1l-1.4,3.6
	c-1,0.3-1.5,1-1.5,1.7v4.7h1.4v1.6c-0.1,1.5,2.4,1.6,2.4,0v-1.6h8.9v1.6c0.1,1.6,2.5,1.5,2.4,0v-1.6H34.4z M20.5,10
	c-0.6,0-1.2-0.5-1.2-1.2c0-0.6,0.5-1.2,1.2-1.2c0.6,0,1.2,0.5,1.2,1.2C21.6,9.4,21.1,10,20.5,10z M20.8,6.2l1-2.7
	C22,3,22.3,2.9,22.7,2.9c0.1,0,0.1,0,0.2,0h6.4c0.6,0,0.8,0,1.1,0.6l1,2.8H20.8V6.2z M31.8,10c-0.6,0-1.2-0.5-1.2-1.2
	c0-0.6,0.5-1.2,1.2-1.2S33,8.2,33,8.8C33,9.4,32.5,10,31.8,10z"/>
<path d="M84.4,12.9V8.3c0-0.6-0.5-1.4-1.5-1.7L81.5,3c-0.4-0.9-1-1.1-1.8-1.1h-7.1c-0.7,0-1.4,0.2-1.8,1.1l-1.4,3.6
	c-1,0.3-1.5,1-1.5,1.7V13h1.4v1.6c-0.1,1.5,2.4,1.6,2.4,0V13h8.9v1.6c0.1,1.6,2.5,1.5,2.4,0V13h1.4V12.9z M70.5,10.2
	c-0.6,0-1.2-0.5-1.2-1.2c0-0.6,0.5-1.2,1.2-1.2c0.6,0,1.2,0.5,1.2,1.2S71.1,10.2,70.5,10.2z M70.8,6.5l1-2.7
	c0.2-0.5,0.5-0.6,0.9-0.7c0.1,0,0.1,0,0.2,0h6.4c0.6,0,0.8,0,1.1,0.6l1,2.8H70.8z M81.8,10.2c-0.6,0-1.2-0.5-1.2-1.2
	c0-0.6,0.5-1.2,1.2-1.2S83,8.4,83,9.1C83,9.7,82.5,10.2,81.8,10.2z"/>
<path d="M135.7,12.7V8c0-0.6-0.5-1.4-1.5-1.7l-1.4-3.6c-0.4-0.9-1-1.1-1.8-1.1h-7.1c-0.7,0-1.4,0.2-1.8,1.1l-1.4,3.6
	c-1,0.3-1.5,1-1.5,1.7v4.7h1.4v1.6c-0.1,1.5,2.4,1.6,2.4,0v-1.6h8.9v1.6c0.1,1.6,2.5,1.5,2.4,0v-1.6H135.7z M121.8,10
	c-0.6,0-1.2-0.5-1.2-1.2c0-0.6,0.5-1.2,1.2-1.2s1.2,0.5,1.2,1.2C123,9.4,122.5,10,121.8,10z M122.1,6.2l1-2.7
	c0.2-0.5,0.5-0.6,0.9-0.7c0.1,0,0.1,0,0.2,0h6.4c0.6,0,0.8,0,1.1,0.6l1,2.8H122.1z M133.2,10c-0.6,0-1.2-0.5-1.2-1.2
	c0-0.6,0.5-1.2,1.2-1.2c0.6,0,1.2,0.5,1.2,1.2C134.3,9.4,133.8,10,133.2,10z"/>
</svg>
