<?xml version="1.0" encoding="utf-8"?>
<!-- Generator: Adobe Illustrator 19.2.1, SVG Export Plug-In . SVG Version: 6.00 Build 0)  -->
<svg version="1.1"
	 id="svg2307" inkscape:output_extension="org.inkscape.output.svg.inkscape" inkscape:version="0.45.1" sodipodi:docbase="/home/phsi/Desktop/clIPART" sodipodi:docname="Car_with_Driver-Silhouette.svg" sodipodi:version="0.32" xmlns:cc="http://web.resource.org/cc/" xmlns:dc="http://purl.org/dc/elements/1.1/" xmlns:inkscape="http://www.inkscape.org/namespaces/inkscape" xmlns:rdf="http://www.w3.org/1999/02/22-rdf-syntax-ns#" xmlns:sodipodi="http://sodipodi.sourceforge.net/DTD/sodipodi-0.dtd" xmlns:svg="http://www.w3.org/2000/svg"
	 xmlns="http://www.w3.org/2000/svg" xmlns:xlink="http://www.w3.org/1999/xlink" x="0px" y="0px" viewBox="0 0 150 150"
	 style="enable-background:new 0 0 150 150;" xml:space="preserve">
<sodipodi:namedview  bordercolor="#666666" borderopacity="1.0" gridtolerance="10000" guidetolerance="10" height="260px" id="base" inkscape:current-layer="svg2307" inkscape:cx="240.61188" inkscape:cy="154.13128" inkscape:document-units="px" inkscape:pageopacity="0.0" inkscape:pageshadow="2" inkscape:window-height="949" inkscape:window-width="1280" inkscape:window-x="0" inkscape:window-y="25" inkscape:zoom="0.69326923" objecttolerance="10" pagecolor="#ffffff" width="310px">
	</sodipodi:namedview>
<path d="M119.5,66.3l-38.3,0c0-0.6,0.1-1,0.1-1.2c1-3.8,4.2-6.9,7.9-7.7c2-0.4,20.1-0.4,22,0c2,0.4,3.7,1.4,5.2,2.9
	c1.6,1.6,2.3,2.9,2.8,5C119.4,65.6,119.5,65.9,119.5,66.3z M97.9,55.1c0.8,0.3,1.5,0.4,2.9,0.3c1.6-0.1,2-0.2,3.3-0.8
	c1.8-0.9,3-2.2,3.9-4c0.5-1.1,0.6-1.3,0.6-3.5c0-2.2,0-2.4-0.7-3.7c-1.5-3.1-4.5-4.7-7.5-4.7c-3,0-6,1.6-7.5,4.7
	c-0.6,1.3-0.7,1.5-0.7,3.6c0,2.1,0,2.3,0.6,3.6C93.9,52.9,95.4,54.2,97.9,55.1z M69.8,60.5c-1.5-1.5-3.2-2.5-5.2-2.9
	c-2-0.4-20.1-0.4-22,0c-3.7,0.8-6.9,3.9-7.9,7.7c0,0.2-0.1,0.6-0.1,1.2l38.3,0c-0.1-0.4-0.1-0.7-0.2-1
	C72.1,63.4,71.3,62.1,69.8,60.5z M51.2,55.3c0.8,0.3,1.5,0.4,2.9,0.3c1.6-0.1,2-0.2,3.3-0.8c1.8-0.9,3-2.2,3.9-4
	c0.5-1.1,0.6-1.3,0.6-3.5c0-2.2,0-2.4-0.7-3.7c-1.5-3.1-4.5-4.7-7.5-4.7c-3,0-6,1.6-7.5,4.7c-0.6,1.3-0.7,1.5-0.7,3.6
	c0,2.1,0,2.3,0.6,3.6C47.2,53.1,48.7,54.4,51.2,55.3z"/>
<path d="M150,125.9V83.3c-0.2-5.6-4.3-12.5-13.7-15.1l-12.9-32.6c-3.6-7.9-9.4-10.1-16.1-9.8H42.7c-6.7-0.2-12.5,2-16.1,9.8
	L13.7,68.1C4.3,70.7,0.2,77.6,0,83.3v42.6h12.4v14.4c-0.6,13.7,21.6,14.2,22.1-0.1l0.3-14.1h80.4l0.3,14.1
	c0.5,14.3,22.8,13.8,22.1,0.1v-14.4H150z M23.9,101.3c-5.8,0-10.5-4.7-10.5-10.6c0-5.8,4.7-10.5,10.5-10.5s10.5,4.7,10.5,10.5
	C34.3,96.6,29.6,101.3,23.9,101.3z M26.7,67.5l9.2-24.6c1.4-4.9,4.4-5.8,8.3-5.9c0.6,0,1.2,0,1.8,0l58.3,0.2c5.3-0.1,7.6,0,9.9,5.1
	l9.3,25.2L26.7,67.5z M126.7,101.3c-5.8,0-10.5-4.7-10.5-10.6c0-5.8,4.7-10.5,10.5-10.5c5.8,0,10.5,4.7,10.5,10.5
	C137.2,96.6,132.5,101.3,126.7,101.3z"/>
</svg>
