<?xml version="1.0" encoding="utf-8"?>
<!-- Generator: Adobe Illustrator 20.1.0, SVG Export Plug-In . SVG Version: 6.00 Build 0)  -->
<svg version="1.1" id="Layer_1" xmlns="http://www.w3.org/2000/svg" xmlns:xlink="http://www.w3.org/1999/xlink" x="0px" y="0px"
	 viewBox="0 0 150 150" style="enable-background:new 0 0 150 150;" xml:space="preserve">
<path d="M11.6,122.7c0,3.2,2.5,5.7,5.6,5.8c3.2,0,5.7-2.5,5.7-5.7s-2.5-5.7-5.7-5.7C14.2,117,11.7,119.6,11.6,122.7z M57.8,122.7
	c0,3.2,2.5,5.7,5.7,5.7s5.7-2.5,5.7-5.7s-2.5-5.7-5.7-5.7C60.4,117.1,57.8,119.6,57.8,122.7z M5.1,113.4c22.9,0,45.9,0,68.8,0
	c0,0.7,0,1.4,0,2.2c-23,0-45.8,0-68.8,0c0,0,0,0,0,0c0-0.7,0-1.3,0-2C5.1,113.5,5.1,113.4,5.1,113.4z M10.2,115.6c4.6,0,9.3,0,14,0
	c0,0.5,0,0.9,0,1.4c-4.7,0-9.3,0-14,0l0,0c0-0.4,0-0.8,0-1.2C10.2,115.7,10.2,115.6,10.2,115.6z M5.2,90.2c0,0.5,0,1,0,1.5
	c0,6.8,0,13.7,0,20.5c0,0.1,0,0.2,0,0.4c23,0,45.8,0,68.8,0c0-7.5,0-14.9,0-22.4C51,90.2,28.1,90.2,5.2,90.2z M7.9,111.3H7.2V91.1
	h0.6L7.9,111.3L7.9,111.3z M9.9,111.3H9.3V91.1h0.6V111.3z M11.8,111.3h-0.6V91.1h0.6V111.3z M13.9,111.3h-0.6V91.1h0.6V111.3z
	 M15.9,111.3h-0.7V91.1h0.6L15.9,111.3L15.9,111.3z M17.9,111.3h-0.6V91.1h0.6V111.3z M19.8,111.3h-0.6V91.1h0.6V111.3z M21.8,111.3
	h-0.6V91.1h0.6V111.3z M23.8,111.3h-0.6V91.1h0.6V111.3z M25.9,111.3h-0.6V91.1h0.6V111.3z M27.8,111.3h-0.6V91.1h0.6V111.3z
	 M29.8,111.3h-0.6V91.1h0.6V111.3z M31.8,111.3h-0.6V91.1h0.6V111.3z M33.8,111.3h-0.6V91.1h0.6V111.3z M35.8,111.3h-0.6V91.1h0.6
	V111.3z M37.8,111.3h-0.6V91.1h0.6V111.3z M39.8,111.3h-0.6V91.1h0.6V111.3z M41.8,111.3h-0.6V91.1h0.6V111.3z M43.8,111.3h-0.6
	V91.1h0.6V111.3z M45.8,111.3h-0.6V91.1h0.6V111.3z M47.8,111.3h-0.6V91.1h0.6V111.3z M49.8,111.3h-0.7V91.1h0.6L49.8,111.3
	L49.8,111.3z M51.8,111.3h-0.6V91.1h0.6V111.3z M53.8,111.3h-0.6V91.1h0.6V111.3z M55.8,111.3h-0.6V91.1h0.6V111.3z M57.8,111.3
	h-0.6V91.1h0.6V111.3z M59.8,111.3h-0.6V91.1h0.6V111.3z M61.8,111.3h-0.6V91.1h0.6V111.3z M63.8,111.3h-0.6V91.1h0.6V111.3z
	 M65.8,111.3h-0.6V91.1h0.6V111.3z M67.8,111.3h-0.6V91.1h0.6V111.3z M69.7,111.3h-0.6V91.1h0.6V111.3z M71.8,111.3h-0.6V91.1h0.6
	V111.3z M56.1,115.6c4.6,0,9.3,0,14,0c0,0.5,0,0.9,0,1.4c-4.7,0-9.3,0-14,0l0,0c0-0.4,0-0.8,0-1.2C56.1,115.7,56.1,115.6,56.1,115.6
	z"/>
<path id="path1962" d="M80.7,66.9c-0.1-0.1-3.2-6.2-7-13.4c-3.8-7.3-6.9-13.3-7-13.3c-0.1-0.1-2.1,1.9-5.5,5.3c-5,5-5.4,5.4-5.4,5.9
	c0,0.2,0.2,2.2,0.5,4.3l0.5,3.8l-2.2,2.2L52.3,64l-2.6-4.9l-2.6-4.9l-4.8-2.5c-2.6-1.4-4.8-2.6-4.8-2.6s1-1,2.2-2.2l2.2-2.1l4.2,0.5
	l4.2,0.5l5.5-5.5c4.3-4.3,5.4-5.5,5.3-5.7c-0.1-0.1-6.3-3.3-13.5-7.1l-13.4-7l2.7-2.7l2.7-2.7l16.5,4.4l16.5,4.4l7.5-7.5
	c5.2-5.2,7.7-7.6,8.1-7.8c0.7-0.5,1.2-0.6,1.9-0.6c1.2-0.1,2.1,0.2,3,1.1c0.7,0.9,1,1.5,1,2.5c0,1.6,0.1,1.5-8.4,10.1L78,29.1
	l3.3,12.8c1.9,7,3.7,14.3,4.2,16.3l0.9,3.5l-2.7,2.7C81.6,66.4,80.8,67.1,80.7,66.9z"/>
<g>
	<g id="surface0">
		<path d="M87.5,124.1c1.8-0.7,3.8-0.4,5.5,0.3c1.1,0.4,2.1,1.2,3.3,1.4c2.1,0.4,4.3,0,6.2-1c1.4-0.7,3-1.2,4.6-0.9
			c1.9,0.3,3.6,1.5,5.5,1.9c1.7,0.4,3.4,0.1,5-0.7c1.7-0.7,3.4-1.5,5.2-1.3c1.3,0.1,2.5,0.8,3.7,1.4c2.3,0.9,5,1.1,7.1-0.1
			c1.4-0.7,2.9-1.3,4.4-1.4c1.4-0.1,2.7,0.3,3.9,1c1.2,0.8,2.7,1,4.1,1c0,2.2,0,4.4,0,6.5c-1.1-0.1-2.2-0.1-3.2-0.6
			c-0.7-0.3-1.3-0.7-1.9-1c-1.4-0.6-3-0.8-4.4-0.4c-1.3,0.3-2.4,1.1-3.6,1.5c-1.8,0.6-3.7,0.7-5.4,0.1c-1.3-0.5-2.5-1.3-3.8-1.6
			c-1.8-0.5-3.6,0.2-5.2,1c-2.5,1.3-5.5,1.3-8,0.1c-1.1-0.6-2.3-1-3.5-1.2c-1.1-0.2-2.1,0-3.1,0.4c-1.1,0.4-2.1,1.1-3.3,1.4
			c-2.1,0.7-4.5,0.3-6.4-0.8c-0.9-0.5-1.8-0.8-2.7-1c-1.7-0.3-3.6,0.1-5,1c-1.2,0.8-2.7,1-4.1,1c0-2.2,0-4.4,0-6.5
			c0.9,0,1.9-0.1,2.8-0.4C85.9,125.1,86.6,124.4,87.5,124.1z M142,116.2c-1.3-0.7-2.6-1.1-4-1.1c-1.3,0-2.6,0.5-3.8,1
			c-0.9,0.4-1.8,0.8-2.8,0.8c0-4.8,0-9.7,0-14.5c1.5-3.5,3.1-7,4.6-10.5c0.3-0.7,0.3-1.5,0-2.2c-0.4-0.8-1.1-1.3-1.8-1.6
			c-0.9-0.4-1.8-0.7-2.6-1.1c0-3,0-6,0-9c-1.8,0-3.6,0-5.3,0c0-1.6,0-3.2,0-4.8c-2.5,0-5,0-7.4,0c0-2.1,0-4.3,0-6.4
			c-3.1,0-6.2,0-9.2,0c0,2.1,0,4.3,0,6.4c-2.5,0-4.9,0-7.4,0c0,1.6,0,3.2,0,4.8c-1.8,0-3.6,0-5.3,0c0,3,0,6,0,9
			c-0.9,0.4-1.8,0.7-2.6,1.1c-0.7,0.3-1.3,0.7-1.7,1.4c-0.5,0.8-0.5,1.7-0.1,2.5c1.5,3.5,3,6.9,4.5,10.3c0.1,0.2,0.1,0.5,0.1,0.7
			c0,4.7,0,9.3,0,14c-1.9-0.1-3.5-1.3-5.3-1.6c-1.8-0.4-3.6,0.1-5.2,0.9c-1.3,0.7-2.8,1.1-4.2,1.1c0,2.1,0,4.2,0,6.3
			c1.4-0.1,2.7-0.4,3.9-1.1c1.7-1,3.7-1.3,5.6-0.9c1.5,0.3,2.7,1.3,4.2,1.6c2.1,0.7,4.3,0.4,6.2-0.6c1.6-0.9,3.5-1.4,5.3-1.1
			c1.8,0.3,3.2,1.4,4.9,1.8c2.1,0.6,4.4,0.1,6.3-1c1.6-0.9,3.5-1.2,5.3-0.8c1.6,0.4,2.9,1.4,4.5,1.7c2.1,0.5,4.3,0,6.1-1
			c1.2-0.6,2.4-1,3.7-1c1.4-0.1,2.8,0.4,4,1.1c1.2,0.7,2.5,1,3.8,1.1c0-2.1,0-4.2,0-6.3C144.6,117.1,143.2,116.9,142,116.2z
			 M127.4,84.5c-4.5-1.9-8.9-3.7-13.4-5.5c-4.5,1.8-8.9,3.7-13.4,5.5c0-1.3,0-2.5,0-3.7c1.8,0,3.5,0,5.3,0c0-1.6,0-3.2,0-4.7
			c5.4,0,10.8,0,16.2,0c0,1.6,0,3.2,0,4.7c1.8,0,3.5,0,5.3,0C127.4,82.1,127.4,83.3,127.4,84.5z"/>
	</g>
</g>
</svg>
