<?xml version="1.0" encoding="utf-8"?>
<!-- Generator: Adobe Illustrator 20.1.0, SVG Export Plug-In . SVG Version: 6.00 Build 0)  -->
<svg version="1.1" id="Layer_1" xmlns="http://www.w3.org/2000/svg" xmlns:xlink="http://www.w3.org/1999/xlink" x="0px" y="0px"
	 viewBox="0 0 150 150" style="enable-background:new 0 0 150 150;" xml:space="preserve">
<path d="M91.9,53.9h0.1v-0.2c0-9.4-7.6-17.1-17.1-17.1h-0.2c-9.4,0-17.1,7.7-17.1,17.1c0,0.1,0,0.1,0,0.2V66H23.1V38.4l0.9-0.1
	c8.8,0,17.1-3.7,23-10.2v0.1C54.1,20.4,64.2,16,74.9,16s20.8,4.4,28,12.3l0.2-0.1c5.9,6.4,14.2,10.2,23,10.2l0.9,0.1V66H92.3
	L91.9,53.9z"/>
<g>
	<path d="M110.5,132.1c0.1,2.1-0.5,3.2-1.7,3.2L81,136.1c0.3,0,0.6-0.2,0.9-0.4c0.2-0.3,0.3-0.6,0.3-1L81,123.5c0-0.4-0.2-0.7-0.5-1
		c-0.3-0.3-0.6-0.4-0.9-0.4l-10.8,0.3c-0.3,0-0.6,0.2-0.9,0.4c-0.3,0.3-0.4,0.6-0.4,1l-0.5,11.2c0,0.4,0.1,0.7,0.3,1
		c0.2,0.3,0.5,0.4,0.9,0.4l-27.9,0.8c-1.2,0-1.8-1-1.9-3.1c0-1.6,0.3-3.3,0.9-5.1l15.2-46.1c0.2-0.6,0.5-1,1-1.5
		c0.5-0.4,1-0.6,1.5-0.7l13.4-0.4c-0.3,0-0.6,0.2-0.9,0.4c-0.3,0.3-0.4,0.6-0.4,1l-0.4,8.4c0,0.4,0.1,0.7,0.3,1
		c0.2,0.3,0.5,0.4,0.9,0.4l6.6-0.2c0.3,0,0.6-0.2,0.9-0.4c0.2-0.3,0.3-0.6,0.3-1L77,81.7c0-0.4-0.2-0.7-0.5-1
		c-0.3-0.3-0.6-0.4-0.9-0.4L89,79.9c0.5,0,1,0.2,1.5,0.6c0.5,0.4,0.8,0.9,1.1,1.4l17.8,45.2C110.1,128.9,110.5,130.5,110.5,132.1z
		 M79.9,112.5l0-0.2l-1.3-14c0-0.4-0.2-0.7-0.5-1c-0.3-0.3-0.6-0.4-0.9-0.4l-7.4,0.2c-0.3,0-0.6,0.2-0.9,0.4c-0.3,0.3-0.4,0.6-0.4,1
		l-0.6,14l0,0.2c0,0.4,0.1,0.6,0.3,0.9c0.2,0.2,0.5,0.3,0.8,0.3l9.7-0.3c0.3,0,0.6-0.1,0.8-0.4C79.9,113.2,80,112.9,79.9,112.5z"/>
</g>
</svg>
