<svg xmlns="http://www.w3.org/2000/svg" viewBox="0 0 130.36 107.99"><title>bikeped</title><path d="M115.31,40.13a5.84,5.84,0,1,0-5.84-5.84A5.85,5.85,0,0,0,115.31,40.13ZM125,63.49a16.22,16.22,0,1,0,16.22,16.22A16.23,16.23,0,0,0,125,63.49Zm0,27.58A11.35,11.35,0,1,1,136.4,79.71,11.35,11.35,0,0,1,125,91.06ZM112.52,55.22,125,55.14s1.85.16,1.85-2a1.86,1.86,0,0,0-1.85-2H114.66l-6.28-10.59a5.51,5.51,0,0,0-4.75-2.71,5.44,5.44,0,0,0-3.89,1.62l-12,12a5.51,5.51,0,0,0,1.14,8.68l10.87,6.59V83a2.62,2.62,0,0,0,2.92,2.48A2.93,2.93,0,0,0,105.58,83v-21l-7.3-5.42L105.81,49Zm-32.9,8.27A16.22,16.22,0,1,0,95.85,79.71,16.23,16.23,0,0,0,79.63,63.49Zm0,27.58A11.35,11.35,0,1,1,91,79.71,11.35,11.35,0,0,1,79.63,91.06Z" transform="translate(-10.9 -28.45)"/><path d="M42,74.92a7.38,7.38,0,0,0,8.12-6.45,7.23,7.23,0,0,0-6.94-7.57,7.39,7.39,0,0,0-8.07,6.47A7.16,7.16,0,0,0,42,74.92m-8.1,2.51a9.17,9.17,0,0,1,5.25-1.26,8.36,8.36,0,0,1,5.93,3l7.53,12.21,10.28,5.79a2.54,2.54,0,0,1,1.31,2.41,3.2,3.2,0,0,1-3.61,2.51,4.86,4.86,0,0,1-1.54-.4L47.84,95.43a3.55,3.55,0,0,1-.86-.81L44.18,90l-3.39,12.18L54,115a3.59,3.59,0,0,1,.63,1.32l3.58,15.45c0,.35,0,.56,0,.83-.2,2.31-2.65,4-5.43,3.81a5,5,0,0,1-4.55-3.27l-3.37-14.47L34.11,109l-2.49,9.38a9.92,9.92,0,0,1-1,1.74L20.29,134.42a5.49,5.49,0,0,1-4.71,2c-2.81-.17-4.89-2.16-4.65-4.45a4.36,4.36,0,0,1,.68-1.78L21.2,117l8-29L24,91.46,21.2,101.79a3.46,3.46,0,0,1-3.58,2.31c-1.88-.12-3.24-1.44-3.1-3a2,2,0,0,1,.06-.38l3.29-12a3,3,0,0,1,1-1.33Z" transform="translate(-10.9 -28.45)"/></svg>