<?xml version="1.0" encoding="utf-8"?>
<!-- Generator: Adobe Illustrator 19.2.1, SVG Export Plug-In . SVG Version: 6.00 Build 0)  -->
<svg version="1.1" id="Layer_1" xmlns="http://www.w3.org/2000/svg" xmlns:xlink="http://www.w3.org/1999/xlink" x="0px" y="0px"
	 viewBox="0 0 150 150" style="enable-background:new 0 0 150 150;" xml:space="preserve">
<path d="M101.1,115.8c6.6-1.1,13.1-7.9,13.1-16.3V38.4c0-8.6-7.3-16.5-17.1-16.5H54.9c-9.9,0-17.1,7.9-17.1,16.5v61.1
	c0,8.4,6.5,15.2,13.1,16.3l-19.7,29.6h11.4l14.1-20.7h38.6l14.1,20.7h11.4L101.1,115.8z M64.9,28.1c0-1.5,1.3-2.8,2.8-2.8h16.6
	c1.5,0,2.8,1.3,2.8,2.8V33c0,1.5-1.2,2.8-2.8,2.8H67.7c-1.6,0-2.8-1.3-2.8-2.8V28.1z M46.9,47.6c0-4.6,3-8.6,8.5-8.6h41
	c5.6,0,8.5,4,8.5,8.6v11c0,5.3-3.8,8.5-8.5,8.5h-41c-4.7,0-8.6-3.2-8.5-8.5V47.6z M54.5,106.9c-4.1,0-7.5-3.4-7.5-7.5
	s3.4-7.5,7.5-7.5s7.5,3.4,7.5,7.5S58.7,106.9,54.5,106.9z M89.7,99.4c0-4.1,3.4-7.5,7.5-7.5s7.5,3.4,7.5,7.5c0,4.1-3.4,7.5-7.5,7.5
	S89.7,103.5,89.7,99.4z M87,15.3c0,2.6-2.1,4.7-4.7,4.7s-4.7-2.1-4.7-4.7s2.1-4.7,4.7-4.7S87,12.7,87,15.3z M74.4,15.3
	c0,2.6-2.1,4.7-4.7,4.7c-2.6,0-4.7-2.1-4.7-4.7s2.1-4.7,4.7-4.7C72.3,10.6,74.4,12.7,74.4,15.3z"/>
</svg>
