<?xml version="1.0" encoding="utf-8"?>
<!-- Generator: Adobe Illustrator 19.2.1, SVG Export Plug-In . SVG Version: 6.00 Build 0)  -->
<svg version="1.1" id="Layer_1" xmlns="http://www.w3.org/2000/svg" xmlns:xlink="http://www.w3.org/1999/xlink" x="0px" y="0px"
	 viewBox="0 0 150 150" style="enable-background:new 0 0 150 150;" xml:space="preserve">
<g>
	<g id="surface0">
		<path d="M23.2,124.7c3.5-1.4,7.5-0.8,11,0.6c2.2,0.8,4.2,2.3,6.6,2.7c4.2,0.8,8.6,0,12.4-2c2.8-1.4,6-2.3,9.1-1.7
			c3.8,0.6,7.1,3,10.9,3.7c3.3,0.7,6.8,0.1,9.9-1.3c3.3-1.4,6.7-2.9,10.4-2.5c2.6,0.2,5,1.5,7.4,2.7c4.5,1.7,9.9,2.2,14.2-0.2
			c2.7-1.4,5.7-2.5,8.8-2.7c2.7-0.2,5.4,0.6,7.7,2c2.4,1.6,5.3,2,8.1,2c0,4.3,0,8.7,0,13c-2.2-0.1-4.4-0.2-6.4-1.1
			c-1.3-0.5-2.5-1.4-3.8-1.9c-2.7-1.2-5.9-1.5-8.8-0.8c-2.6,0.6-4.7,2.1-7.2,2.9c-3.5,1.2-7.4,1.3-10.8,0.1
			c-2.6-0.9-4.9-2.6-7.6-3.2c-3.6-0.9-7.2,0.4-10.4,1.9c-4.9,2.5-10.9,2.5-15.9,0.2c-2.2-1.1-4.5-2-7-2.4c-2.1-0.3-4.2,0-6.1,0.8
			c-2.2,0.8-4.2,2.2-6.5,2.8c-4.2,1.3-8.9,0.5-12.8-1.5c-1.7-0.9-3.5-1.6-5.4-1.9c-3.4-0.6-7.1,0.2-10,2c-2.4,1.5-5.3,1.9-8.1,2
			c0-4.3,0-8.7,0-13c1.8,0,3.7-0.2,5.5-0.7C19.9,126.7,21.3,125.3,23.2,124.7z M131.9,108.9c-2.5-1.3-5.2-2.2-8-2.1
			c-2.6,0-5.1,1-7.5,2c-1.8,0.7-3.6,1.6-5.5,1.6c0-9.6,0-19.3,0-28.9c2.9-7,6.1-14,9.1-21c0.6-1.4,0.6-3,0-4.4
			c-0.7-1.5-2.1-2.5-3.6-3.1c-1.7-0.7-3.5-1.4-5.2-2.1c0-6,0-12,0-18c-3.5,0-7.1,0-10.6,0c0-3.2,0-6.3,0-9.5c-4.9,0-9.9,0-14.8,0
			c0-4.2,0-8.5,0-12.7c-6.1,0-12.3,0-18.4,0c0,4.2,0,8.5,0,12.7c-4.9,0-9.8,0-14.7,0c0,3.2,0,6.3,0,9.5c-3.5,0-7.1,0-10.6,0
			c0,6,0,12,0,18c-1.7,0.7-3.5,1.4-5.2,2.1c-1.3,0.5-2.6,1.4-3.4,2.7c-0.9,1.5-0.9,3.4-0.2,5c3,6.9,5.9,13.7,8.9,20.6
			c0.2,0.4,0.1,0.9,0.2,1.3c0,9.3,0,18.6,0,27.9c-3.8-0.1-6.9-2.6-10.5-3.2c-3.5-0.8-7.2,0.1-10.3,1.7c-2.5,1.4-5.5,2.1-8.4,2.2
			c0,4.2,0,8.3,0,12.5c2.7-0.1,5.4-0.7,7.7-2.1c3.3-2,7.3-2.6,11.1-1.7c2.9,0.6,5.4,2.5,8.3,3.2c4.1,1.3,8.6,0.8,12.3-1.2
			c3.2-1.7,6.9-2.8,10.5-2.2c3.5,0.5,6.3,2.8,9.8,3.6c4.2,1.1,8.7,0.1,12.5-1.9c3.2-1.7,7-2.4,10.6-1.5c3.2,0.7,5.8,2.8,9,3.4
			c4.1,1,8.5,0,12.2-1.9c2.3-1.2,4.8-2,7.3-2c2.8-0.1,5.6,0.8,8,2.2c2.3,1.3,4.9,1.9,7.5,2.1c0-4.2,0-8.4,0-12.6
			C137.2,110.8,134.3,110.3,131.9,108.9z M102.7,45.8c-8.9-3.7-17.8-7.3-26.7-11c-8.9,3.6-17.8,7.4-26.8,11c0-2.5,0-4.9,0-7.4
			c3.5,0,7,0,10.5,0c0-3.1,0-6.3,0-9.4c10.8,0,21.6,0,32.4,0c0,3.1,0,6.3,0,9.4c3.5,0,7,0,10.5,0C102.7,40.9,102.7,43.4,102.7,45.8z
			"/>
	</g>
</g>
</svg>
