<?xml version="1.0" encoding="utf-8"?>
<!-- Generator: Adobe Illustrator 15.1.0, SVG Export Plug-In . SVG Version: 6.00 Build 0)  -->
<!DOCTYPE svg PUBLIC "-//W3C//DTD SVG 1.1//EN" "http://www.w3.org/Graphics/SVG/1.1/DTD/svg11.dtd">
<svg version="1.1" id="Layer_1" xmlns="http://www.w3.org/2000/svg" xmlns:xlink="http://www.w3.org/1999/xlink" x="0px" y="0px"
	 width="150px" height="150px" viewBox="0 0 150 150" enable-background="new 0 0 150 150" xml:space="preserve">
<title>Aiga bus trans</title>
<g>
	<path d="M128.167,26.221c-0.444-7.036-5.296-11.888-14.557-14.554C96.804,7.222,83.934,5,75,5s-21.804,2.222-38.613,6.667
		c-7.925,2.666-12.776,7.518-14.553,14.554l-6,44.113v61.333h10v10c0,4.603,3.731,8.333,8.333,8.333s8.333-3.73,8.333-8.333v-10h65
		v10c0,4.603,3.731,8.333,8.333,8.333s8.333-3.73,8.333-8.333v-10h10V70.333L128.167,26.221z M50.834,16h48.333
		c2.025,0,3.667,1.642,3.667,3.667c0,2.024-1.642,3.667-3.667,3.667H50.834c-2.025,0-3.667-1.643-3.667-3.667
		C47.167,17.642,48.809,16,50.834,16z M34.167,112.834c-4.602,0-8.333-3.732-8.333-8.334c0-4.603,3.731-8.333,8.333-8.333
		s8.333,3.73,8.333,8.333C42.5,109.102,38.77,112.834,34.167,112.834z M31.001,75.668c-3.556,0-5.112-1.779-4.667-5.334L30.5,37
		c0.833-6.667,5.833-6.667,6.667-6.667h75.667c3.889,0,6.111,2.222,6.667,6.667l4.167,33.333c0.666,5.334-4.668,5.334-4.668,5.334
		H31.001z M115.834,112.834c-4.602,0-8.333-3.732-8.333-8.334c0-4.603,3.731-8.333,8.333-8.333s8.333,3.73,8.333,8.333
		C124.167,109.102,120.436,112.834,115.834,112.834z"/>
</g>
</svg>
