<?xml version="1.0" encoding="utf-8"?>
<!-- Generator: Adobe Illustrator 20.1.0, SVG Export Plug-In . SVG Version: 6.00 Build 0)  -->
<svg version="1.1" id="Layer_1" xmlns="http://www.w3.org/2000/svg" xmlns:xlink="http://www.w3.org/1999/xlink" x="0px" y="0px"
	 viewBox="0 0 150 150" style="enable-background:new 0 0 150 150;" xml:space="preserve">
<path d="M60.3,85.8c4.7-0.8,9.4-5.6,9.4-11.6V30.5c0-6.1-5.2-11.8-12.2-11.8H27.3c-7.1,0-12.2,5.6-12.2,11.8v43.6
	c0,6,4.6,10.9,9.4,11.6l-14.1,21.1h8.1l10.1-14.8h27.6l10.1,14.8h8.1L60.3,85.8z M34.5,23.1c0-1.1,0.9-2,2-2h11.9c1.1,0,2,0.9,2,2
	v3.5c0,1.1-0.9,2-2,2H36.5c-1.1,0-2-0.9-2-2C34.5,26.6,34.5,23.1,34.5,23.1z M21.6,37c0-3.3,2.1-6.1,6.1-6.1H57c4,0,6.1,2.9,6.1,6.1
	v7.9c0,3.8-2.7,6.1-6.1,6.1H27.7c-3.4,0-6.1-2.3-6.1-6.1V37z M27.1,79.4c-2.9,0-5.4-2.4-5.4-5.4c0-2.9,2.4-5.4,5.4-5.4
	s5.4,2.4,5.4,5.4C32.4,77,30.1,79.4,27.1,79.4z M52.2,74c0-2.9,2.4-5.4,5.4-5.4s5.4,2.4,5.4,5.4c0,2.9-2.4,5.4-5.4,5.4
	S52.2,77,52.2,74z M50.3,14c0,1.9-1.5,3.4-3.4,3.4c-1.9,0-3.4-1.5-3.4-3.4s1.5-3.4,3.4-3.4C48.8,10.6,50.3,12.1,50.3,14z M41.3,14
	c0,1.9-1.5,3.4-3.4,3.4s-3.4-1.5-3.4-3.4s1.5-3.4,3.4-3.4S41.3,12.1,41.3,14z"/>
<g>
	<path d="M139.5,85.5c-0.2-3.6-2.7-6-7.4-7.4c-8.5-2.2-15-3.4-19.5-3.4s-11,1.1-19.5,3.4c-4,1.3-6.5,3.8-7.4,7.4l-3,22.3v31h5.1v5.1
		c0,2.3,1.9,4.2,4.2,4.2c2.3,0,4.2-1.9,4.2-4.2v-5.1h32.9v5.1c0,2.3,1.9,4.2,4.2,4.2c2.3,0,4.2-1.9,4.2-4.2v-5.1h5.1v-31L139.5,85.5
		z M100.4,80.3h24.5c1,0,1.9,0.8,1.9,1.9c0,1-0.8,1.9-1.9,1.9h-24.5c-1,0-1.9-0.8-1.9-1.9C98.5,81.2,99.4,80.3,100.4,80.3z
		 M92,129.3c-2.3,0-4.2-1.9-4.2-4.2c0-2.3,1.9-4.2,4.2-4.2c2.3,0,4.2,1.9,4.2,4.2C96.2,127.4,94.3,129.3,92,129.3z M90.4,110.5
		c-1.8,0-2.6-0.9-2.4-2.7l2.1-16.9c0.4-3.4,3-3.4,3.4-3.4h38.3c2,0,3.1,1.1,3.4,3.4l2.1,16.9c0.3,2.7-2.4,2.7-2.4,2.7L90.4,110.5
		L90.4,110.5z M133.3,129.3c-2.3,0-4.2-1.9-4.2-4.2c0-2.3,1.9-4.2,4.2-4.2c2.3,0,4.2,1.9,4.2,4.2
		C137.5,127.4,135.6,129.3,133.3,129.3z"/>
</g>
</svg>
