<svg xmlns="http://www.w3.org/2000/svg" viewBox="0 0 150 150"><title>Artboard 1</title><path d="M147.2,112.7c-1.7-8.4-4.7-16.3-12.4-21.2a85.24,85.24,0,0,0-8-4c-.3-.1-.6-.2-1.1-.4.7-.2,1.1-.4,1.5-.5a6.41,6.41,0,0,0,4.1-6.8,6.12,6.12,0,0,0-5.8-5.5c-4.9-.2-9.8-.1-14.7-.1h-6.5a16.18,16.18,0,0,0,1.8-1c3.5-2.5,2.1-6.8,2.1-6.8L102,39.3a10.1,10.1,0,0,0-3.5-4.9c-2.7-2.1-5.8-1.8-9-.2s-3.1,3.3-3.1,3.3L81.5,50.9l-15,.8s-2.4-.1-3.3,1.7H51.4A6.44,6.44,0,0,0,45,58.3c-.1.4.2.9.4,1.3a8.18,8.18,0,0,1-6.2,12.8,2.1,2.1,0,0,0-1.9,1.3C34,80.6,30.5,87.4,27.2,94.3c-.5,1.1-1,1.3-2.3,1.1A26,26,0,0,0,6.2,98.5c-2.4,1.4-3.2,3.3-2.4,5.4s2.7,3,5.6,2.5a18.26,18.26,0,0,0-7,10.9,17.56,17.56,0,0,0,1.9,12.5,17.72,17.72,0,0,0,18.8,9c6.3-1,13.3-5.8,14.9-15.6.2.2.5.3.6.5a4.18,4.18,0,0,0,7.3-3,25.79,25.79,0,0,0-8.7-19.1,1.7,1.7,0,0,1-.5-2.5c1.1-1.9,2-3.9,3-6a11.57,11.57,0,0,1,1.1,1.6c5.1,7.6,10.2,15.2,15.2,22.9,1.9,2.9,4.4,3.9,7.8,3.9,10.7-.1,21.3-.3,32-.3h2.7c2.2,12,8.8,17.8,18.3,17.7s16-6.3,18-17.3c1.5,0,3.1,0,4.6.1A7.63,7.63,0,0,0,147.2,112.7ZM19.9,128.2a7.35,7.35,0,0,1-.1-14.7,7.28,7.28,0,0,1,7.3,7.3A7.41,7.41,0,0,1,19.9,128.2Zm63-18.2H72.8c-2.3,0-4.6.2-6.9.2-.9,0-1.4-.1-1.8-.9-5.3-10.6-10.7-21-16-31.6a2.8,2.8,0,0,1,0-2.2c2.1-4.4,4.3-8.7,6.4-13.1a1.65,1.65,0,0,1,1.9-1.1c3.6.1,7.2,0,10.7,0a4.46,4.46,0,0,0,3.7-1.6l9.8-.1a20.1,20.1,0,0,0,5.3-1.4c2.1-1,4.7-7.2,4.7-7.2L88,64.7,65.6,67.6a9.42,9.42,0,0,0-4.3,3.9c-1.4,2.7.8,7.2.8,7.2l9,26.9s1.8,2.7,6.6,1.4,2.7-5.8,2.7-5.8L73.2,78.6l2.8-.3a6.22,6.22,0,0,0,1.2,6.2,17.74,17.74,0,0,1,4.7,10.7c.3,4.6.7,8.9,1.1,13.5A7.78,7.78,0,0,0,82.9,110Zm33.5,17.6c-3.7-.1-6.9-3.6-6.9-6.6h14.2A7,7,0,0,1,116.4,127.6ZM31.5,68.1V58.6c2.5,0,4.7-.1,6.9,0a5.51,5.51,0,0,1,.5,10.9,60.64,60.64,0,0,1-7.4.1A7.5,7.5,0,0,0,31.5,68.1ZM87,20.5l-8.2,1.4c.6-5.1,4-8.8,11.2-9.9,4.5.3,9.2.6,11.9,9.1a11.62,11.62,0,0,1-1.9,9.7c-4.6,1.5-11.9-1.2-16.5,3l-4.8.6.2-7.1L87,26.2Z"/></svg>