<?xml version="1.0" encoding="utf-8"?>
<!-- Generator: Adobe Illustrator 20.1.0, SVG Export Plug-In . SVG Version: 6.00 Build 0)  -->
<svg version="1.1" id="svg1953" xmlns:svg="http://www.w3.org/2000/svg"
	 xmlns="http://www.w3.org/2000/svg" xmlns:xlink="http://www.w3.org/1999/xlink" x="0px" y="0px" viewBox="0 0 150 150"
	 style="enable-background:new 0 0 150 150;" xml:space="preserve">
<style type="text/css">
	.st0{fill:#231F20;stroke:#FFFFFF;stroke-miterlimit:10;}
	.st1{fill:none;stroke:#000000;stroke-miterlimit:10;}
</style>
<path class="st0" d="M139.9,72c0,1.3,0,2.7,0,4c0,0.2,0,0.4-0.1,0.6c-0.2,2-0.3,3.9-0.5,5.9c0,0.3-0.2,0.4-0.4,0.5
	c-3.5,1.2-7,2.3-10.5,3.5c-0.2,0.1-0.3,0.2-0.4,0.4c-1.3,5.5-3.5,10.7-6.4,15.5c-0.1,0.2-0.1,0.4,0,0.6c1.7,3.3,3.3,6.6,5,10
	c0.1,0.2,0.1,0.3-0.1,0.5c-3.5,4.6-7.6,8.6-12.1,12.1c-0.2,0.2-0.4,0.2-0.6,0.1c-3.3-1.7-6.6-3.3-9.9-5c-0.2-0.1-0.3-0.1-0.5,0
	c-4.8,2.9-10,5.1-15.5,6.4c-0.3,0.1-0.4,0.2-0.4,0.4c-1.2,3.5-2.3,7-3.5,10.5c-0.1,0.2-0.2,0.4-0.5,0.4c-1.6,0.1-3.2,0.3-4.9,0.4
	c-0.6,0.1-1.1,0.1-1.7,0.1c-1.3,0-2.7,0-4,0c-0.1,0-0.2,0-0.3,0c-2.1-0.2-4.2-0.4-6.2-0.5c-0.3,0-0.4-0.2-0.4-0.4
	c-1.2-3.5-2.4-7-3.5-10.5c-0.1-0.2-0.2-0.3-0.4-0.4c-5.5-1.3-10.7-3.5-15.5-6.4c-0.2-0.1-0.4-0.1-0.6,0c-3.3,1.7-6.6,3.3-9.9,5
	c-0.2,0.1-0.4,0.1-0.6-0.1c-4.6-3.5-8.6-7.5-12.1-12.1c-0.2-0.2-0.2-0.3-0.1-0.6c1.7-3.3,3.3-6.6,5-10c0.1-0.2,0.1-0.3,0-0.5
	c-3-4.8-5.1-10-6.4-15.5c-0.1-0.2-0.2-0.3-0.4-0.4c-3.5-1.2-7-2.4-10.6-3.5c-0.2-0.1-0.3-0.2-0.4-0.4c-0.1-1.6-0.3-3.2-0.4-4.7
	c-0.1-0.6-0.1-1.2-0.1-1.8c0-1.4,0-2.7,0-4c0-0.2,0-0.3,0.1-0.5c0.2-2,0.3-4,0.5-6.1c0-0.3,0.1-0.4,0.4-0.4c3.5-1.2,7-2.3,10.6-3.5
	c0.2-0.1,0.3-0.2,0.4-0.4c1.3-5.5,3.5-10.7,6.4-15.5c0.1-0.2,0.1-0.4,0-0.6c-1.7-3.3-3.3-6.6-5-9.9c-0.1-0.3-0.1-0.4,0.1-0.6
	c3.5-4.5,7.5-8.6,12.1-12.1c0.2-0.2,0.4-0.2,0.7-0.1c3.3,1.7,6.6,3.3,9.9,4.9c0.2,0.1,0.4,0.1,0.6,0c4.8-2.9,10-5.1,15.5-6.4
	c0.2-0.1,0.3-0.2,0.4-0.4c1.2-3.5,2.3-7,3.5-10.5c0.1-0.2,0.2-0.4,0.5-0.4c1.6-0.1,3.2-0.3,4.8-0.4C71.6,9.1,72.2,9,72.8,9
	c1.4,0,2.7,0,4,0c0.1,0,0.3,0,0.4,0.1c2.1,0.2,4.1,0.4,6.2,0.5c0.3,0,0.3,0.2,0.4,0.4c1.2,3.5,2.3,7,3.5,10.5
	c0.1,0.2,0.2,0.3,0.4,0.4c5.5,1.3,10.7,3.5,15.5,6.4c0.2,0.1,0.4,0.1,0.6,0c3.3-1.7,6.6-3.3,9.9-5c0.2-0.1,0.4-0.1,0.6,0.1
	c4.6,3.5,8.6,7.5,12.1,12.1c0.2,0.2,0.2,0.3,0.1,0.6c-1.7,3.3-3.3,6.6-5,10c-0.1,0.2-0.1,0.3,0,0.5c3,4.8,5.1,10,6.4,15.5
	c0.1,0.2,0.2,0.3,0.4,0.4c3.5,1.2,7,2.4,10.5,3.5c0.2,0.1,0.4,0.2,0.4,0.4c0.1,1.6,0.3,3.2,0.5,4.9C139.8,70.8,139.8,71.4,139.9,72z
	 M30.4,74.5C30.7,99.1,51,119,75.9,118.4c24.3-0.6,43.9-20.8,43.3-45.5C118.7,48.6,98.5,29,73.8,29.6C49.5,30.2,30.2,50.2,30.4,74.5
	z"/>
<g>
	<g>
		<path d="M64.8,40.6c-1,0-1.7,0.8-1.7,1.7v63.3c0,1,0.8,1.7,1.7,1.7h20.2c1,0,1.7-0.8,1.7-1.7V42.3c0-1-0.8-1.7-1.7-1.7H64.8z
			 M74.8,104.7c-5.1,0-9.2-4.2-9.2-9.2c0-5.1,4.2-9.2,9.2-9.2c5.1,0,9.2,4.2,9.2,9.2C84,100.6,79.9,104.7,74.8,104.7z M74.8,83.5
			c-5.1,0-9.2-4.2-9.2-9.2c0-5.1,4.2-9.2,9.2-9.2c5.1,0,9.2,4.2,9.2,9.2C84,79.3,79.9,83.5,74.8,83.5z M75,61.7
			c-5.1,0-9.2-4.2-9.2-9.2c0-5.1,4.2-9.2,9.2-9.2c5.1,0,9.2,4.2,9.2,9.2C84.2,57.6,80,61.7,75,61.7z"/>
		<path class="st1" d="M64.8,40.6c-1,0-1.7,0.8-1.7,1.7v63.3c0,1,0.8,1.7,1.7,1.7h20.2c1,0,1.7-0.8,1.7-1.7V42.3
			c0-1-0.8-1.7-1.7-1.7H64.8z M74.8,104.7c-5.1,0-9.2-4.2-9.2-9.2c0-5.1,4.2-9.2,9.2-9.2c5.1,0,9.2,4.2,9.2,9.2
			C84,100.6,79.9,104.7,74.8,104.7z M74.8,83.5c-5.1,0-9.2-4.2-9.2-9.2c0-5.1,4.2-9.2,9.2-9.2c5.1,0,9.2,4.2,9.2,9.2
			C84,79.3,79.9,83.5,74.8,83.5z M75,61.7c-5.1,0-9.2-4.2-9.2-9.2c0-5.1,4.2-9.2,9.2-9.2c5.1,0,9.2,4.2,9.2,9.2
			C84.2,57.6,80,61.7,75,61.7z"/>
	</g>
</g>
</svg>
