<?xml version="1.0" encoding="utf-8"?>
<!-- Generator: Adobe Illustrator 15.1.0, SVG Export Plug-In . SVG Version: 6.00 Build 0)  -->
<!DOCTYPE svg PUBLIC "-//W3C//DTD SVG 1.1//EN" "http://www.w3.org/Graphics/SVG/1.1/DTD/svg11.dtd">
<svg version="1.1" id="Layer_1" xmlns="http://www.w3.org/2000/svg" xmlns:xlink="http://www.w3.org/1999/xlink" x="0px" y="0px"
	 width="150px" height="150px" viewBox="-139.453 691.681 150 150" enable-background="new -139.453 691.681 150 150"
	 xml:space="preserve">
<path id="path1_1_" d="M-63.621,720.324c8.138,0.615,15.187-5.023,15.846-12.586c0.63-7.562-5.416-14.136-13.553-14.777
	c-8.052-0.561-15.158,5.078-15.76,12.641C-77.775,713.109-71.729,719.737-63.621,720.324 M-72.106,725.23
	c2.867-1.648,6.36-2.74,10.249-2.461c4.998,0.324,9.086,2.855,11.585,5.945l14.707,23.85l20.074,11.311
	c1.704,1.068,2.783,2.809,2.557,4.713c-0.284,2.949-3.437,5.156-7.042,4.9c-1.108-0.047-2.016-0.418-3.01-0.789l-21.891-12.33
	c-0.683-0.441-1.222-1.001-1.677-1.581l-5.479-8.94l-6.615,23.779l25.866,24.99c0.597,0.766,0.993,1.672,1.221,2.576l6.986,30.168
	c-0.058,0.674,0.056,1.092,0,1.627c-0.399,4.504-5.169,7.756-10.593,7.43c-4.514-0.303-7.836-3.018-8.887-6.385l-6.587-28.264
	l-21.04-18.813l-4.855,18.324c-0.171,0.859-1.562,2.672-1.959,3.393l-20.187,27.82c-1.988,2.531-5.367,4.156-9.2,3.9
	c-5.48-0.324-9.541-4.227-9.085-8.686c0.113-1.254,0.766-2.578,1.334-3.482l18.739-25.709l15.645-56.664l-10.221,6.758l-5.423,20.18
	c-0.738,2.604-3.605,4.715-6.985,4.506c-3.662-0.232-6.332-2.809-6.047-5.805c0-0.232,0.057-0.465,0.113-0.744l6.417-23.524
	c0.397-0.999,1.051-1.903,2.016-2.602L-72.106,725.23z"/>
</svg>
